HIERARCHY
ROOT joint_Root
{
	OFFSET 0.0 0.0 0.0
	CHANNELS 6 Xposition Yposition Zposition Zrotation Xrotation Yrotation 
	JOINT Hips
	{
		OFFSET -17.1583 93.1646 452.98
		CHANNELS 6 Xposition Yposition Zposition Zrotation Xrotation Yrotation 
		JOINT Spine
		{
			OFFSET 15.7357 0.0 0.0
			CHANNELS 6 Xposition Yposition Zposition Zrotation Xrotation Yrotation 
			JOINT Chest
			{
				OFFSET 8.98455 -0.406207 0.0
				CHANNELS 6 Xposition Yposition Zposition Zrotation Xrotation Yrotation 
				JOINT Neck
				{
					OFFSET 16.3773 0.0 0.0
					CHANNELS 6 Xposition Yposition Zposition Zrotation Xrotation Yrotation 
					JOINT Head
					{
						OFFSET 6.45672 0.0 0.0
						CHANNELS 6 Xposition Yposition Zposition Zrotation Xrotation Yrotation 
						End Site
						{
							OFFSET 0.0 0.0 0.0
						}
					}
				}
				JOINT Shoulder_L
				{
					OFFSET 12.9942 -0.242716 4.98039
					CHANNELS 6 Xposition Yposition Zposition Zrotation Xrotation Yrotation 
					JOINT UpperArm_L
					{
						OFFSET 5.34809 0.0 0.0
						CHANNELS 6 Xposition Yposition Zposition Zrotation Xrotation Yrotation 
						JOINT LowerArm_L
						{
							OFFSET 24.3286 1.87007e-05 0.0
							CHANNELS 6 Xposition Yposition Zposition Zrotation Xrotation Yrotation 
							JOINT Hand_L
							{
								OFFSET 22.2916 0.0 0.0
								CHANNELS 6 Xposition Yposition Zposition Zrotation Xrotation Yrotation 
								End Site
								{
									OFFSET 0.0 0.0 0.0
								}
							}
						}
					}
				}
				JOINT Shoulder_R
				{
					OFFSET 12.9945 -0.242716 -4.98039
					CHANNELS 6 Xposition Yposition Zposition Zrotation Xrotation Yrotation 
					JOINT UpperArm_R
					{
						OFFSET -5.34813 0.0 0.0
						CHANNELS 6 Xposition Yposition Zposition Zrotation Xrotation Yrotation 
						JOINT LowerArm_R
						{
							OFFSET -24.3289 0.000322201 0.0
							CHANNELS 6 Xposition Yposition Zposition Zrotation Xrotation Yrotation 
							JOINT Hand_R
							{
								OFFSET -22.2915 -0.000108084 0.0
								CHANNELS 6 Xposition Yposition Zposition Zrotation Xrotation Yrotation 
								End Site
								{
									OFFSET 0.0 0.0 0.0
								}
							}
						}
					}
				}
			}
		}
		JOINT UpperLeg_L
		{
			OFFSET -2.19248 -6.46944 0.0
			CHANNELS 6 Xposition Yposition Zposition Zrotation Xrotation Yrotation 
			JOINT LowerLeg_L
			{
				OFFSET 39.0811 0.0 -1.23785e-05
				CHANNELS 6 Xposition Yposition Zposition Zrotation Xrotation Yrotation 
				JOINT Foot_L
				{
					OFFSET 40.9854 0.0 -1.26872e-05
					CHANNELS 6 Xposition Yposition Zposition Zrotation Xrotation Yrotation 
					JOINT Toes_L
					{
						OFFSET 11.7543 0.0 0.0
						CHANNELS 6 Xposition Yposition Zposition Zrotation Xrotation Yrotation 
						End Site
						{
							OFFSET 0.0 0.0 0.0
						}
					}
				}
			}
		}
		JOINT UpperLeg_R
		{
			OFFSET -2.19251 6.46944 0.0
			CHANNELS 6 Xposition Yposition Zposition Zrotation Xrotation Yrotation 
			JOINT LowerLeg_R
			{
				OFFSET -39.0811 -0.00228153 -0.0401928
				CHANNELS 6 Xposition Yposition Zposition Zrotation Xrotation Yrotation 
				JOINT Foot_R
				{
					OFFSET -40.9854 0.0 0.0
					CHANNELS 6 Xposition Yposition Zposition Zrotation Xrotation Yrotation 
					JOINT Toes_R
					{
						OFFSET -11.7543 0.0 0.0
						CHANNELS 6 Xposition Yposition Zposition Zrotation Xrotation Yrotation 
						End Site
						{
							OFFSET 0.0 0.0 0.0
						}
					}
				}
			}
		}
	}
}
MOTION
Frames:	6
Frame Time:	0.0333333
0.000000 0.000000 0.000000 0.000000 0.000000 -0.000000 -3.944720 91.588400 -0.461932 85.127400 -0.555948 10.389800 15.735700 0.000005 -0.000001 75.115100 85.501000 -72.560600 8.984550 -0.406207 -0.000000 0.991219 -2.461390 5.126690 16.377300 -0.000001 -0.000001 16.342800 3.089530 8.331650 6.456720 -0.000001 -0.000000 -8.429230 0.031220 20.327200 12.994200 -0.242716 4.980390 -92.306800 6.193250 -69.524200 5.348090 -0.000007 -0.000001 -80.754600 -22.378600 -11.193300 24.328600 0.000019 0.000005 29.513100 -33.845700 -134.535000 22.291600 -0.000001 0.000005 43.732700 4.994910 7.427410 12.994500 -0.242716 -4.980390 86.287000 8.896400 -67.235500 -5.348130 -0.000001 -0.000004 -70.605500 -7.603140 -11.225900 -24.328900 0.000322 -0.000009 13.578800 -15.200700 -137.349000 -22.291500 -0.000108 -0.000004 50.356000 5.647890 -14.817800 -2.192480 -6.469440 -0.000000 -174.201000 1.285250 2.038730 39.081100 -0.000007 -0.000012 0.430951 -0.762579 29.472900 40.985400 -0.000006 -0.000013 -0.135252 1.607280 -76.555100 11.754300 -0.000000 0.000003 -0.000448 0.174860 -9.484180 -2.192510 6.469440 -0.000001 -172.145000 10.787900 -171.064000 -39.081100 -0.002282 -0.040193 0.174982 -0.532133 17.879100 -40.985400 0.000008 0.000006 6.919740 4.569290 -72.703100 -11.754300 -0.000006 -0.000006 -0.011483 0.282069 -5.110500
0.000000 0.000000 0.000000 0.000000 0.000000 -0.000000 -3.953480 91.607200 -0.483119 85.182700 -0.632255 10.408900 15.735700 0.000005 -0.000001 75.531600 85.497000 -73.043800 8.984550 -0.406207 -0.000000 1.012420 -2.395740 4.993400 16.377300 -0.000001 -0.000001 16.537900 3.102390 8.244900 6.456720 -0.000001 -0.000000 -8.493380 -0.018748 20.366200 12.994200 -0.242716 4.980390 -92.314900 6.200880 -69.481500 5.348090 -0.000007 -0.000001 -80.758300 -22.529100 -11.189700 24.328600 0.000019 0.000005 29.247500 -33.566500 -134.636000 22.291600 -0.000001 0.000005 43.536900 5.003410 7.246630 12.994500 -0.242716 -4.980390 86.266800 8.948130 -67.242000 -5.348130 -0.000001 -0.000004 -70.531200 -7.512660 -11.056100 -24.328900 0.000322 -0.000009 13.422800 -14.998200 -137.317000 -22.291500 -0.000108 -0.000004 50.247500 5.646300 -14.672200 -2.192480 -6.469440 -0.000000 -174.231000 1.230220 2.126050 39.081100 -0.000007 -0.000012 0.422923 -0.752516 29.337600 40.985400 -0.000006 -0.000013 -0.154258 1.589980 -76.486500 11.754300 -0.000000 0.000003 -0.000443 0.174781 -9.487390 -2.192510 6.469440 -0.000001 -172.231000 10.815000 -171.011000 -39.081100 -0.002282 -0.040193 0.172652 -0.527070 17.810400 -40.985400 0.000008 0.000006 6.945550 4.732290 -72.680400 -11.754300 -0.000006 -0.000006 -0.011769 0.284080 -5.028150
0.000000 0.000000 0.000000 0.000000 0.000000 -0.000000 -3.965810 91.616500 -0.522111 85.202600 -0.707455 10.364800 15.735700 0.000005 -0.000001 75.786300 85.500400 -73.345800 8.984550 -0.406207 -0.000000 1.013580 -2.352480 4.898420 16.377300 -0.000001 -0.000001 16.618200 3.125040 8.227480 6.456720 -0.000001 -0.000000 -8.528480 -0.062516 20.283100 12.994200 -0.242716 4.980390 -92.341800 6.237110 -69.372700 5.348090 -0.000007 -0.000001 -80.753800 -22.650900 -11.241900 24.328600 0.000019 0.000005 29.292100 -33.535300 -134.561000 22.291600 -0.000001 0.000005 43.550900 4.995760 7.409270 12.994500 -0.242716 -4.980390 86.270000 8.933660 -67.226900 -5.348130 -0.000001 -0.000004 -70.521100 -7.299230 -10.927700 -24.328900 0.000322 -0.000009 13.455300 -14.989200 -137.229000 -22.291500 -0.000108 -0.000004 50.211700 5.646100 -14.653900 -2.192480 -6.469440 -0.000000 -174.228000 1.129610 2.077310 39.081100 -0.000007 -0.000012 0.422263 -0.752519 29.299300 40.985400 -0.000006 -0.000013 -0.161042 1.587820 -76.424700 11.754300 -0.000000 0.000003 -0.000503 0.175707 -9.449770 -2.192510 6.469440 -0.000001 -172.225000 10.781300 -171.068000 -39.081100 -0.002282 -0.040193 0.172591 -0.527693 17.784700 -40.985400 0.000008 0.000006 6.962670 4.755930 -72.624000 -11.754300 -0.000006 -0.000006 -0.011382 0.281358 -5.139610
0.000000 0.000000 0.000000 0.000000 0.000000 -0.000000 -3.974090 91.633200 -0.564454 85.241500 -0.737610 10.360100 15.735700 0.000005 -0.000001 76.048000 85.477500 -73.669700 8.984550 -0.406207 -0.000000 1.065810 -2.318900 4.774770 16.377300 -0.000001 -0.000001 16.602300 3.099880 8.151160 6.456720 -0.000001 -0.000000 -8.477320 -0.100653 20.307900 12.994200 -0.242716 4.980390 -92.340700 6.237330 -69.382500 5.348090 -0.000007 -0.000001 -80.783200 -22.779300 -11.260800 24.328600 0.000019 0.000005 29.284400 -33.508100 -134.549000 22.291600 -0.000001 0.000005 43.738700 4.995190 7.421430 12.994500 -0.242716 -4.980390 86.271700 8.956620 -67.287900 -5.348130 -0.000001 -0.000004 -70.522700 -7.188370 -10.956400 -24.328900 0.000322 -0.000009 13.560700 -15.061800 -137.132000 -22.291500 -0.000108 -0.000004 50.206300 5.645200 -14.573500 -2.192480 -6.469440 -0.000000 -174.262000 1.107650 2.100200 39.081100 -0.000007 -0.000012 0.418804 -0.749245 29.204900 40.985400 -0.000006 -0.000013 -0.169404 1.569520 -76.370600 11.754300 -0.000000 0.000003 -0.000502 0.175681 -9.450800 -2.192510 6.469440 -0.000001 -172.263000 10.768500 -171.068000 -39.081100 -0.002282 -0.040193 0.171755 -0.526690 17.734000 -40.985400 0.000008 0.000006 6.976130 4.822560 -72.617700 -11.754300 -0.000006 -0.000006 -0.010943 0.278219 -5.268110
0.000000 0.000000 0.000000 0.000000 0.000000 -0.000000 -3.973700 91.636700 -0.616300 85.214700 -0.726576 10.329900 15.735700 0.000005 -0.000001 76.198000 85.450700 -73.858100 8.984550 -0.406207 -0.000000 1.122280 -2.305260 4.699010 16.377300 -0.000001 -0.000001 16.578300 3.036750 8.122490 6.456720 -0.000001 -0.000000 -8.498370 -0.195796 20.267600 12.994200 -0.242716 4.980390 -92.356500 6.266830 -69.344400 5.348090 -0.000007 -0.000001 -80.775900 -22.820700 -11.304700 24.328600 0.000019 0.000005 29.207400 -33.414200 -134.568000 22.291600 -0.000001 0.000005 43.613700 4.995870 7.406850 12.994500 -0.242716 -4.980390 86.272200 8.953440 -67.283900 -5.348130 -0.000001 -0.000004 -70.411800 -6.959170 -10.897200 -24.328900 0.000322 -0.000009 13.602700 -15.063500 -137.043000 -22.291500 -0.000108 -0.000004 50.287000 5.644600 -14.520300 -2.192480 -6.469440 -0.000000 -174.226000 1.090830 2.012120 39.081100 -0.000007 -0.000012 0.422999 -0.755627 29.241200 40.985400 -0.000006 -0.000013 -0.160356 1.620330 -76.368800 11.754300 -0.000000 0.000003 -0.000501 0.175674 -9.451090 -2.192510 6.469440 -0.000001 -172.198000 10.724700 -171.142000 -39.081100 -0.002282 -0.040193 0.171798 -0.527099 17.725300 -40.985400 0.000008 0.000006 6.966190 4.725730 -72.551400 -11.754300 -0.000006 -0.000006 -0.011166 0.279820 -5.202560
0.000000 0.000000 0.000000 0.000000 0.000000 -0.000000 -3.960210 91.637800 -0.651471 85.221700 -0.703967 10.279000 15.735700 0.000005 -0.000001 76.533800 85.438900 -74.249800 8.984550 -0.406207 -0.000000 1.155390 -2.255030 4.587470 16.377300 -0.000001 -0.000001 16.573100 2.962770 8.072230 6.456720 -0.000001 -0.000000 -8.568730 -0.376998 20.293200 12.994200 -0.242716 4.980390 -92.357900 6.265460 -69.328400 5.348090 -0.000007 -0.000001 -80.774900 -22.732600 -11.410300 24.328600 0.000019 0.000005 29.287400 -33.371800 -134.442000 22.291600 -0.000001 0.000005 43.676400 4.990990 7.510300 12.994500 -0.242716 -4.980390 86.277800 8.924920 -67.249900 -5.348130 -0.000001 -0.000004 -70.418500 -6.863140 -10.883000 -24.328900 0.000322 -0.000009 13.487600 -14.885000 -136.963000 -22.291500 -0.000108 -0.000004 50.288000 5.643540 -14.427700 -2.192480 -6.469440 -0.000000 -174.215000 1.014750 1.902630 39.081100 -0.000007 -0.000012 0.419867 -0.749290 29.265300 40.985400 -0.000006 -0.000013 -0.140297 1.674960 -76.305700 11.754300 -0.000000 0.000003 -0.000609 0.177313 -9.384520 -2.192510 6.469440 -0.000001 -172.179000 10.663700 -171.253000 -39.081100 -0.002282 -0.040193 0.173481 -0.530536 17.782600 -40.985400 0.000008 0.000006 6.943850 4.639590 -72.559700 -11.754300 -0.000006 -0.000006 -0.011270 0.280559 -5.172340
